<svg width="48" height="49" viewBox="0 0 48 49" fill="none" xmlns="http://www.w3.org/2000/svg">
<path d="M24 3C18.893 2.99738 13.9518 4.81278 10.0612 8.12113C6.17059 11.4295 3.58473 16.0147 2.7666 21.0558C1.94848 26.0969 2.95153 31.2646 5.59615 35.6335C8.24077 40.0025 12.3542 43.2874 17.2 44.9C18.28 45.1 18.67 44.44 18.67 43.9V40.25C12.67 41.55 11.43 37.37 11.43 37.37C11.0331 36.0474 10.1696 34.9139 8.99999 34.18C7.04999 32.85 9.14999 32.87 9.14999 32.87C9.83114 32.9653 10.4816 33.2149 11.0517 33.5996C11.6218 33.9843 12.0966 34.494 12.44 35.09C14.36 38.38 17.44 37.43 18.7 36.88C18.7986 35.7873 19.2845 34.7659 20.07 34C15.29 33.46 10.27 31.62 10.27 23.38C10.2393 21.2425 11.0346 19.1757 12.49 17.61C11.8283 15.7565 11.9035 13.7197 12.7 11.92C12.7 11.92 14.5 11.34 18.61 14.12C22.1324 13.16 25.8476 13.16 29.37 14.12C33.48 11.34 35.28 11.92 35.28 11.92C36.0704 13.7211 36.1455 15.7556 35.49 17.61C36.9436 19.1761 37.7354 21.2436 37.7 23.38C37.7 31.64 32.7 33.45 27.89 33.99C28.4061 34.5129 28.8036 35.1408 29.0555 35.831C29.3075 36.5212 29.4079 37.2576 29.35 37.99V43.89C29.35 44.6 29.74 45.13 30.83 44.89C35.6708 43.2711 39.7777 39.9828 42.4161 35.6132C45.0545 31.2437 46.0522 26.078 45.2309 21.0402C44.4095 16.0024 41.8225 11.4212 37.9328 8.116C34.0431 4.81084 29.1043 2.99737 24 3Z" stroke="#212121" stroke-linecap="round" stroke-linejoin="round"/>
</svg>
