<svg width="48" height="49" viewBox="0 0 48 49" fill="none" xmlns="http://www.w3.org/2000/svg">
<path d="M38.74 17.05V18.05C38.74 28.12 31.1 39.66 17.12 39.66C12.9929 39.6689 8.95353 38.4696 5.5 36.21C6.0997 36.2923 6.70476 36.329 7.31 36.32C10.731 36.3294 14.0558 35.1883 16.75 33.08C15.1607 33.0566 13.6192 32.5328 12.3446 31.5831C11.07 30.6335 10.1271 29.3062 9.65 27.79C10.1235 27.8896 10.6061 27.9399 11.09 27.94C11.7658 27.9405 12.4385 27.8497 13.09 27.67C11.3686 27.3268 9.81992 26.3961 8.709 25.0371C7.59808 23.6781 6.99395 21.9753 7 20.22V20.12C8.05289 20.7091 9.23385 21.0318 10.44 21.06C8.8346 20.0036 7.69318 18.374 7.24897 16.5042C6.80476 14.6344 7.09128 12.6656 8.05 11C9.96026 13.3495 12.3436 15.2707 15.045 16.6386C17.7465 18.0066 20.7056 18.7907 23.73 18.94C23.5805 18.3724 23.5099 17.7869 23.52 17.2C23.4637 15.6489 23.8868 14.1182 24.7317 12.8162C25.5766 11.5142 26.8023 10.5042 28.2418 9.92383C29.6813 9.34343 31.2647 9.2208 32.7764 9.57263C34.2881 9.92445 35.6547 10.7336 36.69 11.89C38.3917 11.5464 40.0242 10.9211 41.52 10.04C40.9528 11.8314 39.7461 13.3513 38.13 14.31C39.6395 14.1016 41.1112 13.6772 42.5 13.05C41.493 14.5951 40.2199 15.9494 38.74 17.05Z" stroke="#212121" stroke-linecap="round" stroke-linejoin="round"/>
</svg>