<svg width="48" height="49" viewBox="0 0 48 49" fill="none" xmlns="http://www.w3.org/2000/svg">
<path d="M38.0306 28.2806L24.5306 41.7806C24.461 41.8504 24.3782 41.9057 24.2872 41.9434C24.1961 41.9812 24.0986 42.0006 24 42.0006C23.9014 42.0006 23.8038 41.9812 23.7128 41.9434C23.6217 41.9057 23.539 41.8504 23.4694 41.7806L9.96936 28.2806C9.82863 28.1399 9.74957 27.949 9.74957 27.75C9.74957 27.551 9.82863 27.3601 9.96937 27.2194C10.1101 27.0786 10.301 26.9996 10.5 26.9996C10.699 26.9996 10.8899 27.0786 11.0306 27.2194L23.25 39.4387V8.25C23.25 8.05109 23.329 7.86032 23.4697 7.71967C23.6103 7.57902 23.8011 7.5 24 7.5C24.1989 7.5 24.3897 7.57902 24.5303 7.71967C24.671 7.86032 24.75 8.05109 24.75 8.25V39.4387L36.9694 27.2194C37.1101 27.0786 37.301 26.9996 37.5 26.9996C37.699 26.9996 37.8899 27.0786 38.0306 27.2194C38.1713 27.3601 38.2504 27.551 38.2504 27.75C38.2504 27.949 38.1713 28.1399 38.0306 28.2806Z" fill="#212121"/>
</svg>