<svg width="48" height="48" viewBox="0 0 48 48" fill="none" xmlns="http://www.w3.org/2000/svg">
<path d="M38.0306 21.5306C37.9609 21.6003 37.8782 21.6557 37.7871 21.6934C37.6961 21.7311 37.5985 21.7506 37.4999 21.7506C37.4014 21.7506 37.3038 21.7311 37.2127 21.6934C37.1217 21.6557 37.039 21.6003 36.9693 21.5306L24.7499 9.31123V40.5C24.7499 40.6989 24.6709 40.8897 24.5303 41.0303C24.3896 41.171 24.1988 41.25 23.9999 41.25C23.801 41.25 23.6103 41.171 23.4696 41.0303C23.3289 40.8897 23.2499 40.6989 23.2499 40.5V9.31123L11.0306 21.5306C10.9609 21.6003 10.8781 21.6556 10.7871 21.6933C10.6961 21.731 10.5985 21.7504 10.4999 21.7504C10.4014 21.7504 10.3038 21.731 10.2128 21.6933C10.1217 21.6556 10.039 21.6003 9.9693 21.5306C9.89962 21.4609 9.84435 21.3782 9.80663 21.2872C9.76892 21.1961 9.74951 21.0985 9.74951 21C9.74951 20.9014 9.76892 20.8039 9.80663 20.7128C9.84435 20.6218 9.89962 20.539 9.9693 20.4694L23.4693 6.96935C23.539 6.89962 23.6217 6.8443 23.7127 6.80656C23.8038 6.76882 23.9014 6.74939 23.9999 6.74939C24.0985 6.74939 24.1961 6.76882 24.2871 6.80656C24.3782 6.8443 24.4609 6.89962 24.5306 6.96935L38.0306 20.4694C38.1003 20.539 38.1556 20.6217 38.1933 20.7128C38.2311 20.8038 38.2505 20.9014 38.2505 21C38.2505 21.0985 38.2311 21.1961 38.1933 21.2872C38.1556 21.3782 38.1003 21.4609 38.0306 21.5306Z" fill="#212121"/>
</svg>
